<svg xmlns="http://www.w3.org/2000/svg" xmlns:xlink="http://www.w3.org/1999/xlink" viewBox="0 0 152 132"><defs><linearGradient id="a" x1="39.2" x2="152.8" y1="775" y2="775" gradientTransform="translate(0 -650)" gradientUnits="userSpaceOnUse"><stop offset="0" style="stop-color:#d93025"/><stop offset="1" style="stop-color:#ea4335"/></linearGradient><linearGradient id="b" x1="-1169.8" x2="-1056.1" y1="59.7" y2="59.7" gradientTransform="rotate(-120 -490 -232)" gradientUnits="userSpaceOnUse"><stop offset="0" style="stop-color:#1e8e3e"/><stop offset="1" style="stop-color:#34a853"/></linearGradient><linearGradient id="c" x1="56.7" x2="170.4" y1="-664.8" y2="-664.8" gradientTransform="rotate(120 -126 -249)" gradientUnits="userSpaceOnUse"><stop offset="0" style="stop-color:#fbbc04"/><stop offset="1" style="stop-color:#fcc934"/></linearGradient><linearGradient xlink:href="#a" id="d" x1="39.2" x2="152.8" y1="775" y2="775" gradientTransform="translate(-20 -678)" gradientUnits="userSpaceOnUse"/><linearGradient xlink:href="#b" id="e" x1="-1169.8" x2="-1056.1" y1="59.7" y2="59.7" gradientTransform="rotate(-120 -508 -240)" gradientUnits="userSpaceOnUse"/><linearGradient xlink:href="#c" id="f" x1="56.7" x2="170.4" y1="-664.8" y2="-664.8" gradientTransform="rotate(120 -127 -269)" gradientUnits="userSpaceOnUse"/></defs><path fill="#f1f3f4" d="M0 0v122c0 5 5 10 10 10h132c5 0 10-5 10-10V0Zm59 15h34a7 7 0 1 1 0 13H59a7 7 0 1 1 0-13z"/><path fill="#f1f3f4" d="M0 0v122c0 5 5 10 10 10h132c5 0 10-5 10-10V0Zm59 15h34a7 7 0 1 1 0 13H59a7 7 0 1 1 0-13z"/><path fill="#e8eaed" d="M0 0v66h152V0Zm59 15h34a7 7 0 1 1 0 13H59a7 7 0 1 1 0-13z"/><path d="M76 56c-24 0-45 13-57 33l9 27 14 16h9l25-43h57a66 66 0 0 0-57-33Z" style="fill:url(#d)"/><path d="M19 89c-7 13-10 28-8 43h33z" style="fill:url(#e)"/><path d="m76 89 25 43h40c2-15-1-30-8-43z" style="fill:url(#f)"/><path d="M76 89a33 33 0 0 0-31 43h62a33 33 0 0 0-31-43Z" style="fill:#f1f3f4"/><path fill="#1a73e8" d="M76 95a27 27 0 0 0-27 27 27 27 0 0 0 2 10h50a27 27 0 0 0 2-10 27 27 0 0 0-27-27Z"/><path fill="#bdc1c6" d="M0 66h152v1H0zM0 66h152H0z" opacity=".1"/></svg>
